<?xml version="1.0" encoding="UTF-8" standalone="no"?>
<svg
   xmlns:dc="http://purl.org/dc/elements/1.1/"
   xmlns:cc="http://creativecommons.org/ns#"
   xmlns:rdf="http://www.w3.org/1999/02/22-rdf-syntax-ns#"
   xmlns:svg="http://www.w3.org/2000/svg"
   xmlns="http://www.w3.org/2000/svg"
   version="1.1"
   id="svg2"
   width="512"
   height="512"
   viewBox="0 0 512 512">
  <metadata
     id="metadata12">
    <rdf:RDF>
      <cc:Work
         rdf:about="">
        <dc:format>image/svg+xml</dc:format>
        <dc:type
           rdf:resource="http://purl.org/dc/dcmitype/StillImage" />
        <dc:title></dc:title>
      </cc:Work>
    </rdf:RDF>
  </metadata>
  <defs
     id="defs10" />
  <path
     style="fill:#3088d4"
     id="path4"
     d="m 501.10024,302.76117 c -7.52336,33.15385 -67.40742,69.43753 -136.1823,76.46899 -35.86372,3.66666 -71.17383,7.0335 -108.82613,5.55469 -61.57563,-2.41675 -110.16519,-12.58615 -110.16519,-12.58615 0,5.13331 0.36908,10.01949 1.10958,14.59166 8.006,52.03409 60.25787,55.15176 109.75354,56.60424 49.957,1.46464 94.44184,-10.54619 94.44184,-10.54619 l 2.05118,38.67207 c 0,0 -34.94342,16.06643 -97.18858,19.02204 -34.32829,1.61455 -76.94884,-0.7394 -126.58883,-11.99057 C 21.840852,454.15148 3.3258133,355.8831 0.49390669,256.17439 -0.36962373,226.57172 0.16268955,198.65653 0.16268955,175.30945 0.16268955,73.352135 78.178523,43.465857 78.178523,43.465857 117.51529,27.99703 185.01734,21.492262 255.19043,20.999999 l 1.72469,0 c 70.17072,0.492263 137.71537,6.997031 177.05213,22.465858 0,0 78.01347,29.886278 78.01347,131.843593 0,0 0.97946,75.22315 -10.88048,127.45172" />
  <path
     style="fill:#ffffff"
     id="path6"
     d="m 411.65505,125.86633 q -12.2716,15.35538 -29.6676,26.16695 0.18217,2.19189 0.18217,6.57972 0,20.36918 -6.96029,40.65734 -6.9603,20.29219 -21.15058,38.93542 -14.19502,18.64726 -33.79125,32.98369 -19.59623,14.33641 -47.25049,22.87506 -27.65663,8.53865 -59.15539,8.53865 -49.63289,0 -90.83866,-22.71909 6.41142,0.628 14.28492,0.628 41.20814,0 73.4403,-21.62314 -19.22951,-0.314 -34.43002,-10.10659 -15.20287,-9.79261 -20.8785,-24.98999 6.04235,0.78398 11.17148,0.78398 7.87586,0 15.5672,-1.72393 -20.5118,-3.60386 -33.97341,-17.4703 -13.46162,-13.86644 -13.46162,-32.19769 l 0,-0.62798 q 12.45377,5.95577 26.7387,6.42575 -12.08707,-6.89371 -19.22953,-18.01928 -7.14246,-11.12353 -7.14246,-24.12699 0,-13.78946 8.05804,-25.54099 22.1608,23.34505 53.93635,37.3695 31.77319,14.02242 68.03673,15.58834 -1.46682,-5.95375 -1.46682,-11.59351 0,-20.99515 17.30847,-35.80155 17.30609,-14.80639 41.84928,-14.80639 25.63857,0 43.22147,15.98337 19.96057,-3.29188 37.54347,-12.22353 -6.77576,18.01927 -26.00529,27.88886 17.0293,-1.56592 34.06333,-7.83368 z" />
</svg>
