<svg xmlns="http://www.w3.org/2000/svg" viewBox="0 0 217 232" height="232" width="217"><path d="M211.807 139.078c-3.18 16.366-28.492 34.277-57.562 37.748-15.159 1.81-30.084 3.472-45.999 2.742-26.027-1.193-46.565-6.213-46.565-6.213 0 2.534.156 4.946.469 7.203 3.384 25.686 25.47 27.225 46.391 27.942 21.116.723 39.919-5.206 39.919-5.206l.867 19.09s-14.77 7.931-41.08 9.39c-14.51.797-32.525-.365-53.507-5.919C9.232 213.81 1.406 165.301.209 116.081c-.365-14.613-.14-28.393-.14-39.918 0-50.33 32.976-65.083 32.976-65.083C49.672 3.444 78.204.233 107.865-.01h.729c29.66.243 58.21 3.454 74.837 11.09 0 0 32.975 14.753 32.975 65.083 0 0 .414 37.133-4.599 62.915" fill="#3088d4"/><path d="M174 51.756q-5.187 7.58-12.54 12.917.077 1.082.077 3.248 0 10.055-2.942 20.07-2.942 10.017-8.94 19.22-6 9.205-14.283 16.282T115.4 134.785Q103.71 139 90.396 139 69.417 139 52 127.785q2.71.31 6.038.31 17.418 0 31.042-10.674-8.128-.155-14.553-4.989-6.426-4.834-8.825-12.336 2.554.387 4.722.387 3.329 0 6.58-.851-8.67-1.779-14.36-8.624-5.69-6.845-5.69-15.894v-.31q5.264 2.94 11.302 3.172-5.109-3.403-8.128-8.895-3.019-5.491-3.019-11.91 0-6.807 3.406-12.608 9.367 11.524 22.798 18.447 13.43 6.922 28.758 7.695-.62-2.939-.62-5.723 0-10.364 7.316-17.673Q126.082 40 136.456 40q10.837 0 18.269 7.89 8.437-1.625 15.869-6.034-2.864 8.895-10.992 13.767Q166.8 54.85 174 51.756z" fill="#fff"/></svg>
